#Podium03_700x350x25cm_(1)_117326_48.obj

v 0.02886963 0.02886759 3.47113
v 0.03535461 0.1250001 3.464645
v 6.964645 0.1250001 3.464645
v 6.97113 0.02886759 3.47113
v 6.97113 0.02886759 3.47113
v 6.964645 0.1250001 3.464645
v 6.964645 0.1250001 0.03535461
v 6.97113 0.02886759 0.02886963
v 6.97113 0.02886759 0.02886963
v 6.964645 0.1250001 0.03535461
v 0.03535461 0.1250001 0.03535461
v 0.02886963 0.02886759 0.02886963
v 0.02886963 0.02886759 0.02886963
v 0.03535461 0.1250001 0.03535461
v 0.03535461 0.1250001 3.464645
v 0.02886963 0.02886759 3.47113
v 7 0.1250001 3.5
v 6.964645 0.1250001 3.464645
v 0.03535461 0.1250001 3.464645
v -2.143061E-16 0.1250001 3.5
v -2.143061E-16 0.1250001 3.5
v 0.03535461 0.1250001 3.464645
v 0.03535461 0.1250001 0.03535461
v 0 0.1250001 0
v 0 0.1250001 0
v 0.03535461 0.1250001 0.03535461
v 6.964645 0.1250001 0.03535461
v 7 0.1250001 4.286122E-16
v 7 0.1250001 4.286122E-16
v 6.964645 0.1250001 0.03535461
v 6.964645 0.1250001 3.464645
v 7 0.1250001 3.5

vn 0.9977307 0.06733424 1.189388E-07
vn 0.9977307 0.06733424 1.189388E-07
vn 0.9977307 0.06733424 1.189388E-07
vn 0.9977307 0.06733424 1.189388E-07
vn 1.189387E-07 0.0673374 -0.9977304
vn 1.189387E-07 0.06733739 -0.9977304
vn 1.189387E-07 0.06733739 -0.9977304
vn 1.189387E-07 0.06733741 -0.9977304
vn -0.9977306 0.06733582 -1.189387E-07
vn -0.9977306 0.06733582 -1.189387E-07
vn -0.9977306 0.06733582 -1.189387E-07
vn -0.9977306 0.06733582 -1.189387E-07
vn -1.189388E-07 0.06733425 0.9977307
vn -1.189388E-07 0.06733424 0.9977307
vn -1.189388E-07 0.06733424 0.9977307
vn -1.189388E-07 0.06733424 0.9977307
vn 0 -1 0
vn 0 -1 0
vn 0 -1 0
vn 0 -1 0
vn 0 -1 0
vn 0 -1 0
vn 0 -1 0
vn 0 -1 0
vn 0 -1 0
vn 0 -1 0
vn 0 -1 0
vn 0 -1 0
vn 0 -1 0
vn 0 -1 0
vn 0 -1 0
vn 0 -1 0

vt -0.4916992 0.4682617
vt -0.4897461 0.4958496
vt 1.489258 0.4958496
vt 1.491211 0.4682617
vt 0.008247375 0.4682617
vt 0.01009369 0.4958496
vt 0.9897461 0.4958496
vt 0.9916992 0.4682617
vt -0.4916992 0.4682617
vt -0.4897461 0.4958496
vt 1.489258 0.4958496
vt 1.491211 0.4682617
vt 0.008247375 0.4682617
vt 0.01010132 0.4958496
vt 0.9897461 0.4958496
vt 0.9916992 0.4682617
vt -0.4997559 -2.384186E-07
vt -0.4897461 0.01009369
vt 1.489258 0.01010132
vt 1.5 2.384186E-07
vt 1.5 2.384186E-07
vt 1.489258 0.01010132
vt 1.489258 0.9897461
vt 1.499023 1
vt 1.499023 1
vt 1.489258 0.9897461
vt -0.4897461 0.9897461
vt -0.5 0.9995117
vt -0.5 0.9995117
vt -0.4897461 0.9897461
vt -0.4897461 0.01009369
vt -0.4997559 -2.384186E-07

g Podium03_700x350x25cm_(1)_117326_48
usemtl Podium03_700x350x25cm_(1)_117326_48
usemap Podium03_700x350x25cm_(1)_117326_48
f 1/1/1 3/3/3 2/2/2
f 1/1/1 4/4/4 3/3/3
f 5/5/5 7/7/7 6/6/6
f 5/5/5 8/8/8 7/7/7
f 9/9/9 11/11/11 10/10/10
f 9/9/9 12/12/12 11/11/11
f 13/13/13 15/15/15 14/14/14
f 13/13/13 16/16/16 15/15/15
f 17/17/17 19/19/19 18/18/18
f 17/17/17 20/20/20 19/19/19
f 21/21/21 23/23/23 22/22/22
f 21/21/21 24/24/24 23/23/23
f 25/25/25 27/27/27 26/26/26
f 25/25/25 28/28/28 27/27/27
f 29/29/29 31/31/31 30/30/30
f 29/29/29 32/32/32 31/31/31
