#Podium03_700x350x25cm_(1)_117326_47.obj

v -2.143061E-16 0.2500001 3.5
v 0 0.2500001 0
v 7 0.2500001 4.286122E-16
v 7 0.2500001 3.5
v -2.143061E-16 0.1250001 3.5
v -2.143061E-16 0.2500001 3.5
v 7 0.2500001 3.5
v 7 0.1250001 3.5
v 7 0.1250001 3.5
v 7 0.2500001 3.5
v 7 0.2500001 4.286122E-16
v 7 0.1250001 4.286122E-16
v 7 0.1250001 4.286122E-16
v 7 0.2500001 4.286122E-16
v 0 0.2500001 0
v 0 0.1250001 0
v 0 0.1250001 0
v 0 0.2500001 0
v -2.143061E-16 0.2500001 3.5
v -2.143061E-16 0.1250001 3.5

vn 0 1 0
vn 0 1 0
vn 0 1 0
vn 0 1 0
vn 1 0 1.192093E-07
vn 1 0 1.192093E-07
vn 1 0 1.192093E-07
vn 1 0 1.192093E-07
vn 1.192093E-07 0 -1
vn 1.192093E-07 0 -1
vn 1.192093E-07 0 -1
vn 1.192093E-07 0 -1
vn -1 0 -1.192093E-07
vn -1 0 -1.192093E-07
vn -1 0 -1.192093E-07
vn -1 0 -1.192093E-07
vn -1.192093E-07 0 1
vn -1.192093E-07 0 1
vn -1.192093E-07 0 1
vn -1.192093E-07 0 1

vt -0.5 2.384186E-07
vt -0.4997559 1
vt 1.5 0.9995117
vt 1.499023 -2.384186E-07
vt -0.5 0.4958496
vt -0.5 0.53125
vt 1.499023 0.53125
vt 1.499023 0.4958496
vt -2.384186E-07 0.4958496
vt -2.384186E-07 0.53125
vt 0.9995117 0.53125
vt 0.9995117 0.4958496
vt -0.5 0.4958496
vt -0.5 0.53125
vt 1.499023 0.53125
vt 1.499023 0.4958496
vt -2.384186E-07 0.4958496
vt -2.384186E-07 0.53125
vt 0.9995117 0.53125
vt 0.9995117 0.4958496

g Podium03_700x350x25cm_(1)_117326_47
usemtl Podium03_700x350x25cm_(1)_117326_47
usemap Podium03_700x350x25cm_(1)_117326_47
f 1/1/1 3/3/3 2/2/2
f 1/1/1 4/4/4 3/3/3
f 5/5/5 7/7/7 6/6/6
f 5/5/5 8/8/8 7/7/7
f 9/9/9 11/11/11 10/10/10
f 9/9/9 12/12/12 11/11/11
f 13/13/13 15/15/15 14/14/14
f 13/13/13 16/16/16 15/15/15
f 17/17/17 19/19/19 18/18/18
f 17/17/17 20/20/20 19/19/19
